<svg xmlns="http://www.w3.org/2000/svg" viewBox="0 0 640 400">
  <defs>
    <linearGradient id="basec3" x1="0" y1="0" x2="1" y2="1">
      <stop offset="0%" stop-color="#1B2540"/>
      <stop offset="100%" stop-color="#0B0F1A"/>
    </linearGradient>
    <radialGradient id="glowc3" cx="50%" cy="46%" r="60%">
      <stop offset="0%" stop-color="#8B7CF6" stop-opacity="0.5"/>
      <stop offset="55%" stop-color="#8B7CF6" stop-opacity="0.14"/>
      <stop offset="100%" stop-color="#8B7CF6" stop-opacity="0"/>
    </radialGradient>
    <linearGradient id="platc3" x1="0" y1="0" x2="1" y2="1">
      <stop offset="0%" stop-color="#8B7CF6" stop-opacity="0.30"/>
      <stop offset="100%" stop-color="#8B7CF6" stop-opacity="0.05"/>
    </linearGradient>
    <pattern id="hexc3" width="46" height="80" patternUnits="userSpaceOnUse">
      <path d="M23 0 L46 13 L46 40 L23 53 L0 40 L0 13 Z" fill="none" stroke="#8B7CF6" stroke-opacity="0.15" stroke-width="1"/>
      <path d="M23 53 L46 66 L46 93 L23 106 L0 93 L0 66 Z" fill="none" stroke="#8B7CF6" stroke-opacity="0.15" stroke-width="1"/>
    </pattern>
  </defs>
  <rect width="640" height="400" fill="url(#basec3)"/>
  <rect width="640" height="400" fill="url(#hexc3)"/>
  <circle cx="320.0" cy="184.0" r="144.0" fill="url(#glowc3)"/>
  <rect x="228.0" y="92.0" width="184" height="184" rx="26" fill="url(#platc3)" stroke="#8B7CF6" stroke-opacity="0.35" stroke-width="1.5" transform="rotate(45 320.0 184.0)"/>
  <circle cx="614" cy="26" r="3" fill="#8B7CF6" fill-opacity="0.65"/>
  <circle cx="26" cy="26" r="3" fill="#8B7CF6" fill-opacity="0.65"/>
  <g transform="translate(320.0,184.0)">
      <rect x="-58" y="-62" width="116" height="92" rx="24" fill="white" fill-opacity="0.95"/>
      <circle cx="-26" cy="-16" r="11" fill="#8B7CF6"/>
      <circle cx="26" cy="-16" r="11" fill="#8B7CF6"/>
      <path d="M-22,16 Q0,32 22,16" stroke="#8B7CF6" stroke-width="6" fill="none" stroke-linecap="round"/>
      <line x1="0" y1="-62" x2="0" y2="-84" stroke="white" stroke-width="6"/>
      <circle cx="0" cy="-90" r="9" fill="#8B7CF6"/></g>
</svg>